<svg width="12" height="12" viewBox="0 0 12 12" fill="white" xmlns="http://www.w3.org/2000/svg">
<path d="M0.146021 0.854021C0.0995332 0.807533 0.0626571 0.752344 0.037498 0.691605C0.0123389 0.630865 -0.000610351 0.565765 -0.000610352 0.500021C-0.000610352 0.434277 0.0123389 0.369177 0.037498 0.308438C0.0626571 0.247698 0.0995332 0.192509 0.146021 0.146021C0.192509 0.0995332 0.247698 0.0626571 0.308438 0.037498C0.369177 0.0123389 0.434277 -0.000610352 0.500021 -0.000610352C0.565765 -0.000610351 0.630865 0.0123389 0.691605 0.037498C0.752344 0.0626571 0.807533 0.0995332 0.854021 0.146021L6.00002 5.29302L11.146 0.146021C11.1925 0.0995332 11.2477 0.0626571 11.3084 0.037498C11.3692 0.0123389 11.4343 -0.000610352 11.5 -0.000610352C11.5658 -0.000610352 11.6309 0.0123389 11.6916 0.037498C11.7523 0.0626571 11.8075 0.0995332 11.854 0.146021C11.9005 0.192509 11.9374 0.247698 11.9625 0.308438C11.9877 0.369177 12.0007 0.434277 12.0007 0.500021C12.0007 0.565765 11.9877 0.630865 11.9625 0.691605C11.9374 0.752344 11.9005 0.807533 11.854 0.854021L6.70702 6.00002L11.854 11.146C11.9005 11.1925 11.9374 11.2477 11.9625 11.3084C11.9877 11.3692 12.0007 11.4343 12.0007 11.5C12.0007 11.5658 11.9877 11.6309 11.9625 11.6916C11.9374 11.7523 11.9005 11.8075 11.854 11.854C11.8075 11.9005 11.7523 11.9374 11.6916 11.9625C11.6309 11.9877 11.5658 12.0007 11.5 12.0007C11.4343 12.0007 11.3692 11.9877 11.3084 11.9625C11.2477 11.9374 11.1925 11.9005 11.146 11.854L6.00002 6.70702L0.854021 11.854C0.807533 11.9005 0.752344 11.9374 0.691605 11.9625C0.630865 11.9877 0.565765 12.0007 0.500021 12.0007C0.434277 12.0007 0.369177 11.9877 0.308438 11.9625C0.247698 11.9374 0.192509 11.9005 0.146021 11.854C0.0995332 11.8075 0.0626571 11.7523 0.037498 11.6916C0.0123389 11.6309 -0.000610352 11.5658 -0.000610352 11.5C-0.000610352 11.4343 0.0123389 11.3692 0.037498 11.3084C0.0626571 11.2477 0.0995332 11.1925 0.146021 11.146L5.29302 6.00002L0.146021 0.854021Z" fill="white"/>
</svg>
